{
	"asset":{
		"generator":"Khronos glTF Blender I/O v4.1.63",
		"version":"2.0"
	},
	"scene":0,
	"scenes":[
		{
			"name":"Scene",
			"nodes":[
				0
			]
		}
	],
	"nodes":[
		{
			"mesh":0,
			"name":"Text.002",
			"translation":[
				-0.14811748266220093,
				-2.088719129562378,
				-1.0568737983703613
			]
		}
	],
	"materials":[
		{
			"doubleSided":true,
			"name":"Material.005",
			"pbrMetallicRoughness":{
				"baseColorFactor":[
					0.800000011920929,
					0.800000011920929,
					0.800000011920929,
					1
				],
				"metallicFactor":0
			}
		},
		{
			"doubleSided":true,
			"name":"Material.001",
			"pbrMetallicRoughness":{
				"baseColorFactor":[
					0.8001489639282227,
					0.00048184857587330043,
					0,
					1
				],
				"metallicFactor":0
			}
		},
		{
			"doubleSided":true,
			"name":"Material.003",
			"pbrMetallicRoughness":{
				"baseColorFactor":[
					0.00898310262709856,
					0.8003311157226562,
					0.017623815685510635,
					1
				],
				"metallicFactor":0
			}
		},
		{
			"doubleSided":true,
			"name":"Material.004",
			"pbrMetallicRoughness":{
				"baseColorFactor":[
					0.800000011920929,
					0.800000011920929,
					0.800000011920929,
					1
				],
				"metallicFactor":0
			}
		}
	],
	"meshes":[
		{
			"name":"Text.002",
			"primitives":[
				{
					"attributes":{
						"POSITION":0,
						"NORMAL":1,
						"TEXCOORD_0":2
					},
					"indices":3,
					"material":0
				},
				{
					"attributes":{
						"POSITION":4,
						"NORMAL":5,
						"TEXCOORD_0":6
					},
					"indices":7,
					"material":1
				},
				{
					"attributes":{
						"POSITION":8,
						"NORMAL":9,
						"TEXCOORD_0":10
					},
					"indices":11,
					"material":2
				},
				{
					"attributes":{
						"POSITION":12,
						"NORMAL":13,
						"TEXCOORD_0":14
					},
					"indices":15,
					"material":3
				}
			]
		}
	],
	"accessors":[
		{
			"bufferView":0,
			"componentType":5126,
			"count":629,
			"max":[
				0.057334691286087036,
				0.4609299898147583,
				2.094542980194092
			],
			"min":[
				-0.007538127712905407,
				-0.6866514682769775,
				0.0016877390444278717
			],
			"type":"VEC3"
		},
		{
			"bufferView":1,
			"componentType":5126,
			"count":629,
			"type":"VEC3"
		},
		{
			"bufferView":2,
			"componentType":5126,
			"count":629,
			"type":"VEC2"
		},
		{
			"bufferView":3,
			"componentType":5123,
			"count":1752,
			"type":"SCALAR"
		},
		{
			"bufferView":4,
			"componentType":5126,
			"count":34,
			"max":[
				0.19648511707782745,
				3.088719367980957,
				3.940722703933716
			],
			"min":[
				0.06693488359451294,
				1.088719129562378,
				-1.1402145624160767
			],
			"type":"VEC3"
		},
		{
			"bufferView":5,
			"componentType":5126,
			"count":34,
			"type":"VEC3"
		},
		{
			"bufferView":6,
			"componentType":5126,
			"count":34,
			"type":"VEC2"
		},
		{
			"bufferView":7,
			"componentType":5123,
			"count":60,
			"type":"SCALAR"
		},
		{
			"bufferView":8,
			"componentType":5126,
			"count":34,
			"max":[
				0.19648511707782745,
				0.8092116713523865,
				3.217592477798462
			],
			"min":[
				0.06693487614393234,
				-1.1907892227172852,
				-1.863344669342041
			],
			"type":"VEC3"
		},
		{
			"bufferView":9,
			"componentType":5126,
			"count":34,
			"type":"VEC3"
		},
		{
			"bufferView":10,
			"componentType":5126,
			"count":34,
			"type":"VEC2"
		},
		{
			"bufferView":11,
			"componentType":5123,
			"count":60,
			"type":"SCALAR"
		},
		{
			"bufferView":12,
			"componentType":5126,
			"count":715,
			"max":[
				0.05733470618724823,
				2.764139175415039,
				2.094543218612671
			],
			"min":[
				-0.00937100499868393,
				1.6165578365325928,
				0.0154878506436944
			],
			"type":"VEC3"
		},
		{
			"bufferView":13,
			"componentType":5126,
			"count":715,
			"type":"VEC3"
		},
		{
			"bufferView":14,
			"componentType":5126,
			"count":715,
			"type":"VEC2"
		},
		{
			"bufferView":15,
			"componentType":5123,
			"count":1968,
			"type":"SCALAR"
		}
	],
	"bufferViews":[
		{
			"buffer":0,
			"byteLength":7548,
			"byteOffset":0,
			"target":34962
		},
		{
			"buffer":0,
			"byteLength":7548,
			"byteOffset":7548,
			"target":34962
		},
		{
			"buffer":0,
			"byteLength":5032,
			"byteOffset":15096,
			"target":34962
		},
		{
			"buffer":0,
			"byteLength":3504,
			"byteOffset":20128,
			"target":34963
		},
		{
			"buffer":0,
			"byteLength":408,
			"byteOffset":23632,
			"target":34962
		},
		{
			"buffer":0,
			"byteLength":408,
			"byteOffset":24040,
			"target":34962
		},
		{
			"buffer":0,
			"byteLength":272,
			"byteOffset":24448,
			"target":34962
		},
		{
			"buffer":0,
			"byteLength":120,
			"byteOffset":24720,
			"target":34963
		},
		{
			"buffer":0,
			"byteLength":408,
			"byteOffset":24840,
			"target":34962
		},
		{
			"buffer":0,
			"byteLength":408,
			"byteOffset":25248,
			"target":34962
		},
		{
			"buffer":0,
			"byteLength":272,
			"byteOffset":25656,
			"target":34962
		},
		{
			"buffer":0,
			"byteLength":120,
			"byteOffset":25928,
			"target":34963
		},
		{
			"buffer":0,
			"byteLength":8580,
			"byteOffset":26048,
			"target":34962
		},
		{
			"buffer":0,
			"byteLength":8580,
			"byteOffset":34628,
			"target":34962
		},
		{
			"buffer":0,
			"byteLength":5720,
			"byteOffset":43208,
			"target":34962
		},
		{
			"buffer":0,
			"byteLength":3936,
			"byteOffset":48928,
			"target":34963
		}
	],
	"buffers":[
		{
			"byteLength":52864,
			"uri":"panneau.bin"
		}
	]
}
