{
	"asset":{
		"generator":"Khronos glTF Blender I/O v4.1.63",
		"version":"2.0"
	},
	"scene":0,
	"scenes":[
		{
			"name":"Scene",
			"nodes":[
				0
			]
		}
	],
	"nodes":[
		{
			"mesh":0,
			"name":"Circle",
			"translation":[
				-0.15760548412799835,
				0.1833004653453827,
				-0.06219621002674103
			]
		}
	],
	"materials":[
		{
			"doubleSided":true,
			"name":"Material.002",
			"pbrMetallicRoughness":{
				"baseColorTexture":{
					"index":0
				},
				"metallicFactor":0
			}
		}
	],
	"meshes":[
		{
			"name":"Circle",
			"primitives":[
				{
					"attributes":{
						"POSITION":0,
						"NORMAL":1,
						"TEXCOORD_0":2
					},
					"indices":3,
					"material":0
				}
			]
		}
	],
	"textures":[
		{
			"sampler":0,
			"source":0
		}
	],
	"images":[
		{
			"mimeType":"image/png",
			"name":"photos_point_degrade_test",
			"uri":"photos_point_degrade_test.png"
		}
	],
	"accessors":[
		{
			"bufferView":0,
			"componentType":5126,
			"count":379,
			"max":[
				0.38477346301078796,
				0.6034610867500305,
				0.4383907914161682
			],
			"min":[
				-0.3977116048336029,
				-0.8226613998413086,
				-0.448986679315567
			],
			"type":"VEC3"
		},
		{
			"bufferView":1,
			"componentType":5126,
			"count":379,
			"type":"VEC3"
		},
		{
			"bufferView":2,
			"componentType":5126,
			"count":379,
			"type":"VEC2"
		},
		{
			"bufferView":3,
			"componentType":5123,
			"count":1614,
			"type":"SCALAR"
		}
	],
	"bufferViews":[
		{
			"buffer":0,
			"byteLength":4548,
			"byteOffset":0,
			"target":34962
		},
		{
			"buffer":0,
			"byteLength":4548,
			"byteOffset":4548,
			"target":34962
		},
		{
			"buffer":0,
			"byteLength":3032,
			"byteOffset":9096,
			"target":34962
		},
		{
			"buffer":0,
			"byteLength":3228,
			"byteOffset":12128,
			"target":34963
		}
	],
	"samplers":[
		{
			"magFilter":9729,
			"minFilter":9987
		}
	],
	"buffers":[
		{
			"byteLength":15356,
			"uri":"point3D2.bin"
		}
	]
}
