{
	"asset":{
		"generator":"Khronos glTF Blender I/O v4.1.63",
		"version":"2.0"
	},
	"scene":0,
	"scenes":[
		{
			"name":"Scene",
			"nodes":[
				0,
				1
			]
		}
	],
	"nodes":[
		{
			"mesh":0,
			"name":"Circle",
			"translation":[
				-0.15760548412799835,
				0.1833004653453827,
				-0.06219621002674103
			]
		},
		{
			"mesh":1,
			"name":"Text",
			"rotation":[
				0.5,
				-0.5,
				0.4999999403953552,
				0.5000000596046448
			],
			"scale":[
				0.36218494176864624,
				0.36218494176864624,
				0.36218494176864624
			],
			"translation":[
				-0.17326273024082184,
				1.0446081161499023,
				-1.7810755968093872
			]
		}
	],
	"materials":[
		{
			"doubleSided":true,
			"name":"Material.002",
			"pbrMetallicRoughness":{
				"baseColorTexture":{
					"index":0
				},
				"metallicFactor":0
			}
		}
	],
	"meshes":[
		{
			"name":"Circle",
			"primitives":[
				{
					"attributes":{
						"POSITION":0,
						"NORMAL":1,
						"TEXCOORD_0":2
					},
					"indices":3,
					"material":0
				}
			]
		},
		{
			"name":"Text",
			"primitives":[
				{
					"attributes":{
						"POSITION":4,
						"NORMAL":5,
						"TEXCOORD_0":6
					},
					"indices":7
				}
			]
		}
	],
	"textures":[
		{
			"sampler":0,
			"source":0
		}
	],
	"images":[
		{
			"mimeType":"image/png",
			"name":"photos_point_degrade_test",
			"uri":"photos_point_degrade_test.png"
		}
	],
	"accessors":[
		{
			"bufferView":0,
			"componentType":5126,
			"count":379,
			"max":[
				0.38477346301078796,
				0.6034610867500305,
				0.4383907914161682
			],
			"min":[
				-0.3977116048336029,
				-0.8226613998413086,
				-0.448986679315567
			],
			"type":"VEC3"
		},
		{
			"bufferView":1,
			"componentType":5126,
			"count":379,
			"type":"VEC3"
		},
		{
			"bufferView":2,
			"componentType":5126,
			"count":379,
			"type":"VEC2"
		},
		{
			"bufferView":3,
			"componentType":5123,
			"count":1614,
			"type":"SCALAR"
		},
		{
			"bufferView":4,
			"componentType":5126,
			"count":8623,
			"max":[
				9.992000579833984,
				0,
				0.23000000417232513
			],
			"min":[
				0.04800000041723251,
				-0.16495683789253235,
				-0.7160000205039978
			],
			"type":"VEC3"
		},
		{
			"bufferView":5,
			"componentType":5126,
			"count":8623,
			"type":"VEC3"
		},
		{
			"bufferView":6,
			"componentType":5126,
			"count":8623,
			"type":"VEC2"
		},
		{
			"bufferView":7,
			"componentType":5123,
			"count":17016,
			"type":"SCALAR"
		}
	],
	"bufferViews":[
		{
			"buffer":0,
			"byteLength":4548,
			"byteOffset":0,
			"target":34962
		},
		{
			"buffer":0,
			"byteLength":4548,
			"byteOffset":4548,
			"target":34962
		},
		{
			"buffer":0,
			"byteLength":3032,
			"byteOffset":9096,
			"target":34962
		},
		{
			"buffer":0,
			"byteLength":3228,
			"byteOffset":12128,
			"target":34963
		},
		{
			"buffer":0,
			"byteLength":103476,
			"byteOffset":15356,
			"target":34962
		},
		{
			"buffer":0,
			"byteLength":103476,
			"byteOffset":118832,
			"target":34962
		},
		{
			"buffer":0,
			"byteLength":68984,
			"byteOffset":222308,
			"target":34962
		},
		{
			"buffer":0,
			"byteLength":34032,
			"byteOffset":291292,
			"target":34963
		}
	],
	"samplers":[
		{
			"magFilter":9729,
			"minFilter":9987
		}
	],
	"buffers":[
		{
			"byteLength":325324,
			"uri":"point3D2_clique.bin"
		}
	]
}
